<svg width="38" height="40" viewBox="0 0 38 40" fill="none" xmlns="http://www.w3.org/2000/svg">
<path d="M10.0123 28.958C20.3486 28.958 26.1437 28.958 36.48 28.958M10.0123 28.958C10.0123 18.0714 10.0123 11.9677 10.0123 1.08113M10.0123 28.958C1.56466 28.958 0.957262 31.5067 1.00208 33.1658M36.48 28.958C36.48 18.0714 36.48 1.08113 36.48 1.08113C36.48 1.08113 20.3486 1.08113 10.0123 1.08113M36.48 28.958C30.2423 29.4028 29.116 38.3444 37 38.8704C33.5781 38.8704 20.1471 39.0964 10.0123 38.9515C4.33595 38.8704 0.957104 38.3444 1.00208 33.1658M10.0123 1.08113C3.25473 0.55518 1.5648 2.65904 1.00208 5.28895C1.00241 16.3345 1.00208 22.2792 1.00208 33.1658" stroke="#202022" stroke-width="1.2"/>
</svg>
