<svg width="40" height="40" viewBox="0 0 40 40" fill="none" xmlns="http://www.w3.org/2000/svg">
<path d="M1 15.7778H39M9.44444 1V5.22222M30.5556 1V5.22222M7.75556 39H32.2444C34.6091 39 35.7915 39 36.6947 38.5398C37.4891 38.1351 38.1351 37.4891 38.5398 36.6947C39 35.7915 39 34.6091 39 32.2444V11.9778C39 9.6131 39 8.43077 38.5398 7.5276C38.1351 6.73312 37.4891 6.08721 36.6947 5.68242C35.7915 5.22222 34.6091 5.22222 32.2444 5.22222H7.75556C5.3909 5.22222 4.20855 5.22222 3.30538 5.68242C2.5109 6.08721 1.86499 6.73312 1.4602 7.5276C1 8.43077 1 9.6131 1 11.9778V32.2444C1 34.6091 1 35.7915 1.4602 36.6947C1.86499 37.4891 2.5109 38.1351 3.30538 38.5398C4.20855 39 5.39088 39 7.75556 39Z" stroke="#202022" stroke-width="1.2" stroke-linecap="round" stroke-linejoin="round"/>
</svg>
