<svg width="40" height="40" viewBox="0 0 40 40" fill="none" xmlns="http://www.w3.org/2000/svg">
<path d="M16.8245 1.92291L16.552 2.10716L3.39004 11.5513C1.97605 12.5659 1.10656 14.1442 1.00916 15.8466L1 16.1672V33.277C1 36.342 3.46118 38.8442 6.55437 38.993L6.84615 39L12.6923 38.9992V31.8463C12.6923 27.8954 15.9641 24.6925 20 24.6925C24.0359 24.6925 27.3077 27.8954 27.3077 31.8463V38.9992L33.1538 39C36.2847 39 38.8408 36.5907 38.9928 33.5626L39 33.277V16.1647C39 14.4493 38.2145 12.8305 36.8706 11.7471L36.6121 11.5504L23.4664 2.10873C21.4984 0.695252 18.8521 0.633216 16.8245 1.92291Z" stroke="#005AE1" stroke-width="1.2"/>
</svg>
