<svg width="40" height="40" viewBox="0 0 40 40" fill="none" xmlns="http://www.w3.org/2000/svg">
<mask id="path-1-outside-1_1214_13258" maskUnits="userSpaceOnUse" x="0" y="0" width="40" height="40" fill="black">
<rect fill="white" width="40" height="40"/>
<path d="M30.8717 7.00471C30.3724 5.05893 29.4641 3.64314 28.3166 2.6749C27.1725 1.70956 25.8239 1.21699 24.4827 1.05856C23.1442 0.900455 21.7998 1.07294 20.6363 1.45031C19.4806 1.82516 18.4571 2.41763 17.7932 3.14245L18.6864 3.99033C19.1664 3.46618 19.9847 2.96649 21.007 2.63491C22.0215 2.30586 23.1915 2.15765 24.3419 2.29354C25.4896 2.4291 26.6047 2.8452 27.5373 3.63214C28.4665 4.41617 29.2481 5.59628 29.6901 7.31895C29.698 7.34981 29.7042 7.38871 29.7066 7.42593C29.9831 11.7277 29.8593 14.5046 29.4203 16.6049C28.9854 18.6855 28.2347 20.1355 27.1898 21.7833C26.8028 22.3937 26.7585 23.2466 27.2721 23.8755C28.5457 25.4349 30.1073 26.1396 31.8153 26.7031C32.2937 26.8609 32.7793 27.007 33.2757 27.1562C34.5752 27.547 35.9485 27.9599 37.4563 28.6642C37.6476 28.7535 37.7788 28.958 37.7788 29.1964V30.9184C37.7788 31.2616 37.5056 31.5399 37.1682 31.5399H30.9192V32.7831H37.1682C38.1798 32.7831 39 31.9485 39 30.9184V29.1964C39 28.4964 38.612 27.8361 37.9655 27.5341C36.3718 26.7898 34.8718 26.3388 33.55 25.9413C33.0727 25.7978 32.6186 25.6612 32.1918 25.5204C30.5599 24.982 29.2635 24.3692 28.2111 23.0806C28.0943 22.9376 28.0681 22.6905 28.2158 22.4576C29.3036 20.7421 30.1373 19.1481 30.6147 16.8637C31.0881 14.599 31.2045 11.6899 30.9252 7.34475C30.9181 7.23431 30.9005 7.11702 30.8717 7.00471Z"/>
<path fill-rule="evenodd" clip-rule="evenodd" d="M24.3354 12.1563C23.5814 8.02004 19.6894 5.88345 15.932 5.80206C12.1574 5.7203 8.1871 7.70182 7.26226 12.1408L7.2549 12.1761L7.25161 12.2121C6.56254 19.7357 7.70782 23.4642 9.00624 25.5679C9.54018 26.4329 10.0966 27.0108 10.4871 27.4164C10.5657 27.498 10.6376 27.5727 10.7013 27.6413C10.9062 27.8623 10.9784 27.9715 11.0028 28.0362L11.0043 28.0394C11.0094 28.0493 11.0192 28.0684 10.977 28.1543C10.9237 28.2628 10.7807 28.4367 10.4894 28.6686C10.209 28.8918 9.83872 29.1319 9.39561 29.387C8.54914 29.8742 7.49856 30.3816 6.41984 30.9026L6.26217 30.9788C5.14224 31.5199 3.99975 32.076 3.09863 32.6174C2.64789 32.8882 2.23765 33.1669 1.91303 33.4512C1.60099 33.7244 1.30353 34.0575 1.17437 34.452L1.1652 34.48L1.15867 34.5088C0.956876 35.399 0.985484 36.5508 1.03954 37.3475C1.10519 38.315 1.9088 39 2.81392 39H28.7807C29.6858 39 30.4894 38.315 30.555 37.3475C30.6091 36.5508 30.6377 35.399 30.4359 34.5088L30.3965 34.3351L30.2727 34.209C29.7444 33.6711 28.8689 33.1287 27.9178 32.6057C27.1923 32.2069 26.3773 31.7957 25.5684 31.3876L25.5671 31.3869C25.3001 31.2522 25.0337 31.1178 24.7714 30.9843C23.7019 30.4398 22.6987 29.9093 21.9282 29.405C21.5431 29.1531 21.2335 28.9187 21.0088 28.7045C20.7756 28.4822 20.6799 28.3247 20.6507 28.2356C20.6114 28.1157 20.6232 28.0596 20.6465 28.002C20.6847 27.9077 20.7718 27.7816 20.9678 27.5607C21.0292 27.4916 21.0978 27.417 21.1723 27.3359C21.5486 26.9264 22.0756 26.353 22.5816 25.4941C23.8055 23.4165 24.8879 19.7381 24.344 12.2241L24.3415 12.19L24.3354 12.1563ZM10.0402 24.9064C8.9387 23.1217 7.79622 19.7098 8.46419 12.3641C9.24158 8.72085 12.5169 6.97164 15.906 7.04505C19.3119 7.11882 22.5035 9.02282 23.1286 12.3503C23.6569 19.7067 22.5765 23.0856 21.5343 24.8547C21.1007 25.5907 20.6701 26.0607 20.2964 26.4685C20.2153 26.557 20.1368 26.6426 20.0616 26.7273C19.8611 26.9533 19.6434 27.2172 19.5175 27.5283C19.3767 27.8761 19.3651 28.2406 19.4922 28.6289C19.6157 29.006 19.8826 29.3341 20.1741 29.612C20.4741 29.898 20.8515 30.1784 21.2678 30.4509C22.1002 30.9956 23.1578 31.5529 24.2253 32.0963C24.4978 32.235 24.7709 32.3728 25.0421 32.5096C25.8457 32.9151 26.6326 33.3121 27.3375 33.6997C28.1979 34.1727 28.8726 34.5986 29.2816 34.9665C29.4013 35.6469 29.3857 36.5412 29.3368 37.2618C29.3186 37.5298 29.092 37.7567 28.7807 37.7567H2.81392C2.50257 37.7567 2.27601 37.5298 2.25783 37.2618C2.20546 36.49 2.19124 35.5192 2.34048 34.8251C2.37358 34.7468 2.47222 34.6014 2.70935 34.3938C2.95599 34.1778 3.29707 33.9418 3.7193 33.6881C4.56411 33.1805 5.65411 32.6487 6.78573 32.102L6.96014 32.0178C8.02332 31.5043 9.11066 30.9793 9.99669 30.4692C10.4647 30.1998 10.8934 29.9251 11.2415 29.648C11.5787 29.3797 11.8936 29.0679 12.0693 28.7102C12.2512 28.3398 12.2835 27.9631 12.1427 27.5902C12.0227 27.2723 11.7914 27.0059 11.5892 26.7879C11.5105 26.7029 11.4278 26.6168 11.3418 26.5272C10.9535 26.1227 10.4982 25.6484 10.0402 24.9064Z"/>
</mask>
<path d="M30.8717 7.00471C30.3724 5.05893 29.4641 3.64314 28.3166 2.6749C27.1725 1.70956 25.8239 1.21699 24.4827 1.05856C23.1442 0.900455 21.7998 1.07294 20.6363 1.45031C19.4806 1.82516 18.4571 2.41763 17.7932 3.14245L18.6864 3.99033C19.1664 3.46618 19.9847 2.96649 21.007 2.63491C22.0215 2.30586 23.1915 2.15765 24.3419 2.29354C25.4896 2.4291 26.6047 2.8452 27.5373 3.63214C28.4665 4.41617 29.2481 5.59628 29.6901 7.31895C29.698 7.34981 29.7042 7.38871 29.7066 7.42593C29.9831 11.7277 29.8593 14.5046 29.4203 16.6049C28.9854 18.6855 28.2347 20.1355 27.1898 21.7833C26.8028 22.3937 26.7585 23.2466 27.2721 23.8755C28.5457 25.4349 30.1073 26.1396 31.8153 26.7031C32.2937 26.8609 32.7793 27.007 33.2757 27.1562C34.5752 27.547 35.9485 27.9599 37.4563 28.6642C37.6476 28.7535 37.7788 28.958 37.7788 29.1964V30.9184C37.7788 31.2616 37.5056 31.5399 37.1682 31.5399H30.9192V32.7831H37.1682C38.1798 32.7831 39 31.9485 39 30.9184V29.1964C39 28.4964 38.612 27.8361 37.9655 27.5341C36.3718 26.7898 34.8718 26.3388 33.55 25.9413C33.0727 25.7978 32.6186 25.6612 32.1918 25.5204C30.5599 24.982 29.2635 24.3692 28.2111 23.0806C28.0943 22.9376 28.0681 22.6905 28.2158 22.4576C29.3036 20.7421 30.1373 19.1481 30.6147 16.8637C31.0881 14.599 31.2045 11.6899 30.9252 7.34475C30.9181 7.23431 30.9005 7.11702 30.8717 7.00471Z" fill="#202022"/>
<path fill-rule="evenodd" clip-rule="evenodd" d="M24.3354 12.1563C23.5814 8.02004 19.6894 5.88345 15.932 5.80206C12.1574 5.7203 8.1871 7.70182 7.26226 12.1408L7.2549 12.1761L7.25161 12.2121C6.56254 19.7357 7.70782 23.4642 9.00624 25.5679C9.54018 26.4329 10.0966 27.0108 10.4871 27.4164C10.5657 27.498 10.6376 27.5727 10.7013 27.6413C10.9062 27.8623 10.9784 27.9715 11.0028 28.0362L11.0043 28.0394C11.0094 28.0493 11.0192 28.0684 10.977 28.1543C10.9237 28.2628 10.7807 28.4367 10.4894 28.6686C10.209 28.8918 9.83872 29.1319 9.39561 29.387C8.54914 29.8742 7.49856 30.3816 6.41984 30.9026L6.26217 30.9788C5.14224 31.5199 3.99975 32.076 3.09863 32.6174C2.64789 32.8882 2.23765 33.1669 1.91303 33.4512C1.60099 33.7244 1.30353 34.0575 1.17437 34.452L1.1652 34.48L1.15867 34.5088C0.956876 35.399 0.985484 36.5508 1.03954 37.3475C1.10519 38.315 1.9088 39 2.81392 39H28.7807C29.6858 39 30.4894 38.315 30.555 37.3475C30.6091 36.5508 30.6377 35.399 30.4359 34.5088L30.3965 34.3351L30.2727 34.209C29.7444 33.6711 28.8689 33.1287 27.9178 32.6057C27.1923 32.2069 26.3773 31.7957 25.5684 31.3876L25.5671 31.3869C25.3001 31.2522 25.0337 31.1178 24.7714 30.9843C23.7019 30.4398 22.6987 29.9093 21.9282 29.405C21.5431 29.1531 21.2335 28.9187 21.0088 28.7045C20.7756 28.4822 20.6799 28.3247 20.6507 28.2356C20.6114 28.1157 20.6232 28.0596 20.6465 28.002C20.6847 27.9077 20.7718 27.7816 20.9678 27.5607C21.0292 27.4916 21.0978 27.417 21.1723 27.3359C21.5486 26.9264 22.0756 26.353 22.5816 25.4941C23.8055 23.4165 24.8879 19.7381 24.344 12.2241L24.3415 12.19L24.3354 12.1563ZM10.0402 24.9064C8.9387 23.1217 7.79622 19.7098 8.46419 12.3641C9.24158 8.72085 12.5169 6.97164 15.906 7.04505C19.3119 7.11882 22.5035 9.02282 23.1286 12.3503C23.6569 19.7067 22.5765 23.0856 21.5343 24.8547C21.1007 25.5907 20.6701 26.0607 20.2964 26.4685C20.2153 26.557 20.1368 26.6426 20.0616 26.7273C19.8611 26.9533 19.6434 27.2172 19.5175 27.5283C19.3767 27.8761 19.3651 28.2406 19.4922 28.6289C19.6157 29.006 19.8826 29.3341 20.1741 29.612C20.4741 29.898 20.8515 30.1784 21.2678 30.4509C22.1002 30.9956 23.1578 31.5529 24.2253 32.0963C24.4978 32.235 24.7709 32.3728 25.0421 32.5096C25.8457 32.9151 26.6326 33.3121 27.3375 33.6997C28.1979 34.1727 28.8726 34.5986 29.2816 34.9665C29.4013 35.6469 29.3857 36.5412 29.3368 37.2618C29.3186 37.5298 29.092 37.7567 28.7807 37.7567H2.81392C2.50257 37.7567 2.27601 37.5298 2.25783 37.2618C2.20546 36.49 2.19124 35.5192 2.34048 34.8251C2.37358 34.7468 2.47222 34.6014 2.70935 34.3938C2.95599 34.1778 3.29707 33.9418 3.7193 33.6881C4.56411 33.1805 5.65411 32.6487 6.78573 32.102L6.96014 32.0178C8.02332 31.5043 9.11066 30.9793 9.99669 30.4692C10.4647 30.1998 10.8934 29.9251 11.2415 29.648C11.5787 29.3797 11.8936 29.0679 12.0693 28.7102C12.2512 28.3398 12.2835 27.9631 12.1427 27.5902C12.0227 27.2723 11.7914 27.0059 11.5892 26.7879C11.5105 26.7029 11.4278 26.6168 11.3418 26.5272C10.9535 26.1227 10.4982 25.6484 10.0402 24.9064Z" fill="#202022"/>
<path d="M30.8717 7.00471C30.3724 5.05893 29.4641 3.64314 28.3166 2.6749C27.1725 1.70956 25.8239 1.21699 24.4827 1.05856C23.1442 0.900455 21.7998 1.07294 20.6363 1.45031C19.4806 1.82516 18.4571 2.41763 17.7932 3.14245L18.6864 3.99033C19.1664 3.46618 19.9847 2.96649 21.007 2.63491C22.0215 2.30586 23.1915 2.15765 24.3419 2.29354C25.4896 2.4291 26.6047 2.8452 27.5373 3.63214C28.4665 4.41617 29.2481 5.59628 29.6901 7.31895C29.698 7.34981 29.7042 7.38871 29.7066 7.42593C29.9831 11.7277 29.8593 14.5046 29.4203 16.6049C28.9854 18.6855 28.2347 20.1355 27.1898 21.7833C26.8028 22.3937 26.7585 23.2466 27.2721 23.8755C28.5457 25.4349 30.1073 26.1396 31.8153 26.7031C32.2937 26.8609 32.7793 27.007 33.2757 27.1562C34.5752 27.547 35.9485 27.9599 37.4563 28.6642C37.6476 28.7535 37.7788 28.958 37.7788 29.1964V30.9184C37.7788 31.2616 37.5056 31.5399 37.1682 31.5399H30.9192V32.7831H37.1682C38.1798 32.7831 39 31.9485 39 30.9184V29.1964C39 28.4964 38.612 27.8361 37.9655 27.5341C36.3718 26.7898 34.8718 26.3388 33.55 25.9413C33.0727 25.7978 32.6186 25.6612 32.1918 25.5204C30.5599 24.982 29.2635 24.3692 28.2111 23.0806C28.0943 22.9376 28.0681 22.6905 28.2158 22.4576C29.3036 20.7421 30.1373 19.1481 30.6147 16.8637C31.0881 14.599 31.2045 11.6899 30.9252 7.34475C30.9181 7.23431 30.9005 7.11702 30.8717 7.00471Z" stroke="#202022" stroke-width="0.2" mask="url(#path-1-outside-1_1214_13258)"/>
<path fill-rule="evenodd" clip-rule="evenodd" d="M24.3354 12.1563C23.5814 8.02004 19.6894 5.88345 15.932 5.80206C12.1574 5.7203 8.1871 7.70182 7.26226 12.1408L7.2549 12.1761L7.25161 12.2121C6.56254 19.7357 7.70782 23.4642 9.00624 25.5679C9.54018 26.4329 10.0966 27.0108 10.4871 27.4164C10.5657 27.498 10.6376 27.5727 10.7013 27.6413C10.9062 27.8623 10.9784 27.9715 11.0028 28.0362L11.0043 28.0394C11.0094 28.0493 11.0192 28.0684 10.977 28.1543C10.9237 28.2628 10.7807 28.4367 10.4894 28.6686C10.209 28.8918 9.83872 29.1319 9.39561 29.387C8.54914 29.8742 7.49856 30.3816 6.41984 30.9026L6.26217 30.9788C5.14224 31.5199 3.99975 32.076 3.09863 32.6174C2.64789 32.8882 2.23765 33.1669 1.91303 33.4512C1.60099 33.7244 1.30353 34.0575 1.17437 34.452L1.1652 34.48L1.15867 34.5088C0.956876 35.399 0.985484 36.5508 1.03954 37.3475C1.10519 38.315 1.9088 39 2.81392 39H28.7807C29.6858 39 30.4894 38.315 30.555 37.3475C30.6091 36.5508 30.6377 35.399 30.4359 34.5088L30.3965 34.3351L30.2727 34.209C29.7444 33.6711 28.8689 33.1287 27.9178 32.6057C27.1923 32.2069 26.3773 31.7957 25.5684 31.3876L25.5671 31.3869C25.3001 31.2522 25.0337 31.1178 24.7714 30.9843C23.7019 30.4398 22.6987 29.9093 21.9282 29.405C21.5431 29.1531 21.2335 28.9187 21.0088 28.7045C20.7756 28.4822 20.6799 28.3247 20.6507 28.2356C20.6114 28.1157 20.6232 28.0596 20.6465 28.002C20.6847 27.9077 20.7718 27.7816 20.9678 27.5607C21.0292 27.4916 21.0978 27.417 21.1723 27.3359C21.5486 26.9264 22.0756 26.353 22.5816 25.4941C23.8055 23.4165 24.8879 19.7381 24.344 12.2241L24.3415 12.19L24.3354 12.1563ZM10.0402 24.9064C8.9387 23.1217 7.79622 19.7098 8.46419 12.3641C9.24158 8.72085 12.5169 6.97164 15.906 7.04505C19.3119 7.11882 22.5035 9.02282 23.1286 12.3503C23.6569 19.7067 22.5765 23.0856 21.5343 24.8547C21.1007 25.5907 20.6701 26.0607 20.2964 26.4685C20.2153 26.557 20.1368 26.6426 20.0616 26.7273C19.8611 26.9533 19.6434 27.2172 19.5175 27.5283C19.3767 27.8761 19.3651 28.2406 19.4922 28.6289C19.6157 29.006 19.8826 29.3341 20.1741 29.612C20.4741 29.898 20.8515 30.1784 21.2678 30.4509C22.1002 30.9956 23.1578 31.5529 24.2253 32.0963C24.4978 32.235 24.7709 32.3728 25.0421 32.5096C25.8457 32.9151 26.6326 33.3121 27.3375 33.6997C28.1979 34.1727 28.8726 34.5986 29.2816 34.9665C29.4013 35.6469 29.3857 36.5412 29.3368 37.2618C29.3186 37.5298 29.092 37.7567 28.7807 37.7567H2.81392C2.50257 37.7567 2.27601 37.5298 2.25783 37.2618C2.20546 36.49 2.19124 35.5192 2.34048 34.8251C2.37358 34.7468 2.47222 34.6014 2.70935 34.3938C2.95599 34.1778 3.29707 33.9418 3.7193 33.6881C4.56411 33.1805 5.65411 32.6487 6.78573 32.102L6.96014 32.0178C8.02332 31.5043 9.11066 30.9793 9.99669 30.4692C10.4647 30.1998 10.8934 29.9251 11.2415 29.648C11.5787 29.3797 11.8936 29.0679 12.0693 28.7102C12.2512 28.3398 12.2835 27.9631 12.1427 27.5902C12.0227 27.2723 11.7914 27.0059 11.5892 26.7879C11.5105 26.7029 11.4278 26.6168 11.3418 26.5272C10.9535 26.1227 10.4982 25.6484 10.0402 24.9064Z" stroke="#202022" stroke-width="0.2" mask="url(#path-1-outside-1_1214_13258)"/>
</svg>
