<svg width="60" height="42" viewBox="0 0 60 42" fill="none" xmlns="http://www.w3.org/2000/svg">
<path d="M0.909515 41.9493V37.3695C0.909515 35.8875 1.28311 34.6177 2.03031 33.56C2.7775 32.5029 3.83406 31.664 5.19997 31.0433C8.12297 29.7234 10.8407 28.6939 13.3531 27.955C15.865 27.2162 18.9216 26.8467 22.5229 26.8467C26.1242 26.8467 29.168 27.2162 31.6542 27.955C34.1409 28.6939 36.8656 29.7234 39.8281 31.0433C41.1545 31.664 42.1941 32.5029 42.9469 33.56C43.7003 34.6177 44.077 35.8875 44.077 37.3695V41.9493H0.909515ZM49.5314 41.9493V37.5524C49.5314 35.2423 49.0761 33.2727 48.1655 31.6434C47.2543 30.0142 46.0732 28.6607 44.6219 27.583C46.547 27.9645 48.4049 28.4427 50.1958 29.0175C51.9867 29.5917 53.5628 30.2245 54.9241 30.9159C56.1441 31.593 57.1434 32.5114 57.9219 33.6709C58.701 34.8304 59.0905 36.1243 59.0905 37.5524V41.9493H49.5314ZM22.5229 19.033C19.9596 19.033 17.8314 18.1637 16.1381 16.4252C14.4454 14.6867 13.599 12.5009 13.599 9.86784C13.599 7.23528 14.4454 5.05978 16.1381 3.34134C17.8314 1.62289 19.9596 0.763672 22.5229 0.763672C25.0862 0.763672 27.2044 1.62289 28.8777 3.34134C30.5509 5.05978 31.3875 7.23528 31.3875 9.86784C31.3875 12.5009 30.5509 14.6867 28.8777 16.4252C27.2044 18.1637 25.0862 19.033 22.5229 19.033ZM43.4834 9.86784C43.4834 12.5009 42.6471 14.6867 40.9744 16.4252C39.3011 18.1637 37.1757 19.033 34.598 19.033C34.4618 19.033 34.3434 19.024 34.2427 19.006C34.1419 18.9876 34.0263 18.9541 33.8958 18.9055C34.865 17.7581 35.5986 16.4191 36.0965 14.8886C36.594 13.3586 36.8427 11.6926 36.8427 9.89079C36.8427 8.08949 36.5708 6.46103 36.0271 5.00542C35.484 3.54981 34.7735 2.15832 33.8958 0.830962C33.9867 0.835184 34.1024 0.825156 34.2427 0.800878C34.383 0.776072 34.4986 0.763672 34.5895 0.763672C37.1729 0.763672 39.3011 1.62289 40.9744 3.34134C42.6471 5.05978 43.4834 7.23528 43.4834 9.86784ZM3.28137 39.5134H41.7051V37.3695C41.7051 36.5251 41.4808 35.7577 41.0322 35.0674C40.583 34.3776 39.8407 33.7524 38.8052 33.1919C36.0539 31.787 33.4785 30.7842 31.0792 30.1836C28.6798 29.583 25.8277 29.2827 22.5229 29.2827C19.2181 29.2827 16.3629 29.583 13.9574 30.1836C11.5524 30.7842 8.97423 31.787 6.22287 33.1919C5.18687 33.7524 4.43762 34.3776 3.97512 35.0674C3.51262 35.7577 3.28137 36.5251 3.28137 37.3695V39.5134ZM22.4936 16.597C24.3395 16.597 25.8879 15.9547 27.1387 14.6701C28.39 13.3849 29.0156 11.7945 29.0156 9.89872C29.0156 8.00294 28.39 6.41248 27.1387 5.12734C25.8879 3.8422 24.3395 3.19963 22.4936 3.19963C20.6472 3.19963 19.0986 3.8422 17.8478 5.12734C16.5965 6.41248 15.9708 8.00294 15.9708 9.89872C15.9708 11.7945 16.5965 13.3849 17.8478 14.6701C19.0986 15.9547 20.6472 16.597 22.4936 16.597Z" fill="#202022"/>
</svg>
