<svg width="24" height="24" viewBox="0 0 24 24" fill="none" xmlns="http://www.w3.org/2000/svg">
<path d="M17 16.9996H19C20.1046 16.9996 21 16.1042 21 14.9996V10.9996C21 9.89506 20.1046 8.99963 19 8.99963H5C3.89543 8.99963 3 9.89506 3 10.9996V14.9996C3 16.1042 3.89543 16.9996 5 16.9996H7M9 20.9996H15C16.1046 20.9996 17 20.1042 17 18.9996V14.9996C17 13.8951 16.1046 12.9996 15 12.9996H9C7.89543 12.9996 7 13.8951 7 14.9996V18.9996C7 20.1042 7.89543 20.9996 9 20.9996ZM17 8.99963V4.99963C17 3.89506 16.1046 2.99963 15 2.99963H9C7.89543 2.99963 7 3.89506 7 4.99963V8.99963H17Z" stroke="#202022" stroke-width="1.2" stroke-linecap="round" stroke-linejoin="round"/>
</svg>
