<svg width="167" height="41" viewBox="0 0 167 41" fill="none" xmlns="http://www.w3.org/2000/svg">
<circle cx="46.9219" cy="28.6406" r="6.70313" stroke="#005AE1" stroke-width="3"/>
<path d="M136.5 20.7188C136.5 20.7188 136.5 24.2486 136.5 26.2285M136.5 36.5625C136.5 36.5625 136.5 30.4359 136.5 26.2285M136.5 26.2285C138.902 21.2329 146.628 19.929 148.603 25.9546C148.662 26.1328 148.688 26.3236 148.688 26.5112C148.688 31.4922 148.688 36.5625 148.688 36.5625" stroke="#005AE1" stroke-width="3"/>
<path d="M148.688 36.5625C148.688 36.5625 148.688 32.3093 148.688 28.4574C148.688 26.9573 148.946 25.3992 149.98 24.3118C153.141 20.9851 159.093 20.8131 160.791 25.9971C160.849 26.1753 160.875 26.3658 160.875 26.5534C160.875 31.3527 160.875 36.5625 160.875 36.5625" stroke="#005AE1" stroke-width="3"/>
<path d="M59.7188 20.7188C59.7188 20.7188 59.7188 24.8325 59.7188 26.8125M59.7188 36.5625C59.7188 36.5625 59.7188 31.0199 59.7188 26.8125M59.7188 26.8125C59.7188 21.9696 70.5434 18.9309 71.881 26.6572C71.8983 26.7576 71.9063 26.8634 71.9063 26.9652C71.9063 31.6021 71.9063 36.5625 71.9063 36.5625" stroke="#005AE1" stroke-width="3"/>
<path d="M129.188 36.5625C129.188 36.5625 129.188 32.4487 129.188 30.4687M129.188 20.7187C129.188 20.7187 129.188 26.2613 129.188 30.4687M129.188 30.4687C129.188 35.3116 118.363 38.3504 117.025 30.624C117.008 30.5237 117 30.4178 117 30.316C117 25.6791 117 20.7187 117 20.7187" stroke="#005AE1" stroke-width="3"/>
<path d="M33.4625 27.5222C30.9206 31.0752 26.9641 33.6819 22.2339 34.4751C12.9601 36.0303 4.22396 30.0261 2.72112 21.0645C1.21829 12.1028 7.51789 3.57717 16.7917 2.022C21.5219 1.22877 26.1122 2.4022 29.6742 4.93164" stroke="#005AE1" stroke-width="3.5"/>
<path d="M88.7844 23.1379C80.3966 18.8193 73.8062 27.4597 83.9914 28.5378C94.1766 29.616 86.987 38.793 78.0001 33.9346" stroke="#005AE1" stroke-width="3"/>
<rect x="94.3438" y="21.2188" width="2.65625" height="14.8438" fill="#005AE1" stroke="#005AE1"/>
<rect x="108.969" y="21.2188" width="2.65625" height="14.8438" fill="#005AE1" stroke="#005AE1"/>
<rect x="101.656" y="15.125" width="2.65625" height="20.9375" fill="#005AE1" stroke="#005AE1"/>
<circle cx="95.672" cy="16.4531" r="1.82813" fill="#BA1A1A"/>
<circle cx="110.379" cy="16.4531" r="1.82813" fill="#BA1A1A"/>
<path d="M159.366 28.8125H162.375V41H159.366V28.8125Z" fill="#BA1A1A"/>
<path d="M155 36.5V33.5H167V36.5H155Z" fill="#BA1A1A"/>
</svg>
