<svg width="192" height="50" viewBox="0 0 192 50" fill="none" xmlns="http://www.w3.org/2000/svg">
<path d="M113.416 50C112.553 50 111.78 49.8067 111.097 49.4202C110.423 49.0337 109.892 48.4989 109.506 47.8158C109.119 47.1237 108.926 46.3462 108.926 45.4833C108.926 44.7822 109.043 44.1485 109.277 43.5822C109.519 43.0159 109.857 42.5305 110.288 42.126C110.728 41.7216 111.227 41.4115 111.785 41.1957C112.351 40.971 112.958 40.8587 113.605 40.8587C114.468 40.8587 115.236 41.0519 115.91 41.4384C116.584 41.8249 117.11 42.3597 117.488 43.0429C117.874 43.726 118.068 44.5035 118.068 45.3754C118.068 46.0765 117.946 46.7102 117.704 47.2765C117.461 47.8428 117.128 48.3281 116.706 48.7326C116.283 49.1371 115.789 49.4517 115.223 49.6764C114.665 49.8921 114.063 50 113.416 50ZM113.618 49.1506C114.265 49.1506 114.827 49.0023 115.304 48.7057C115.789 48.4 116.166 47.9776 116.436 47.4383C116.706 46.89 116.841 46.2608 116.841 45.5507C116.841 44.7777 116.688 44.1035 116.382 43.5283C116.077 42.953 115.663 42.5081 115.142 42.1935C114.62 41.8699 114.032 41.7081 113.376 41.7081C112.755 41.7081 112.203 41.8564 111.717 42.153C111.241 42.4496 110.868 42.8721 110.598 43.4204C110.328 43.9597 110.194 44.5889 110.194 45.308C110.194 46.081 110.342 46.7551 110.639 47.3304C110.944 47.9057 111.358 48.3551 111.879 48.6787C112.4 48.9933 112.98 49.1506 113.618 49.1506Z" fill="#CF0101"/>
<path d="M126.724 49.8652V40.9935H127.614L127.776 49.8652H126.724ZM133.803 49.8652H133.331L127.102 41.762L127.115 40.9935H127.884L133.776 48.6248L133.803 49.8652ZM134.288 40.9935V49.8652H133.385L133.25 40.9935H134.288Z" fill="#CF0101"/>
<path d="M143.624 49.8652V40.9935H144.77V49.8652H143.624ZM144.001 49.8652V48.9618H149.3V49.8652H144.001Z" fill="#CF0101"/>
<path d="M157.603 49.8652V40.9935H158.789V49.8652H157.603Z" fill="#CF0101"/>
<path d="M168.22 49.8652V40.9935H169.11L169.272 49.8652H168.22ZM175.298 49.8652H174.827L168.598 41.762L168.611 40.9935H169.38L175.271 48.6248L175.298 49.8652ZM175.784 40.9935V49.8652H174.88L174.746 40.9935H175.784Z" fill="#CF0101"/>
<path d="M190.769 49.8652H185.12V40.9935H190.338V41.9103H186.225V48.9483H190.769V49.8652ZM185.497 45.8069V44.917H189.825V45.8069H185.497Z" fill="#CF0101"/>
<path d="M25.1479 33.2516C22.2753 34.6367 19.2964 35.2077 16.2111 34.9645C13.1257 34.7213 10.2978 33.7385 7.72719 32.0162C5.1566 30.2939 3.175 27.9991 1.78239 25.1317C0.389788 22.2644 -0.186774 19.2921 0.0527111 16.2147C0.277059 13.1062 1.25074 10.2711 2.97374 7.70931C4.71283 5.1013 7.00303 3.11226 9.84432 1.74218C12.1548 0.628058 14.5907 0.04971 17.1519 0.00713835C19.6979 -0.0666017 22.1361 0.430966 24.4664 1.49984L23.03 4.73118C21.1775 3.93197 19.2266 3.56488 17.1773 3.62989C15.144 3.64868 13.2219 4.09469 11.411 4.96792C9.16295 6.05194 7.35104 7.63726 5.97528 9.72388C4.61561 11.7643 3.84301 14.0216 3.65748 16.496C3.47195 18.9703 3.92411 21.3295 5.01398 23.5735C6.10384 25.8175 7.68004 27.6346 9.74257 29.0249C11.79 30.3841 14.0384 31.1655 16.488 31.3691C18.9687 31.5576 21.3331 31.1099 23.5812 30.0258C25.3921 29.1526 26.9433 27.943 28.2349 26.3971C29.5425 24.8049 30.4565 23.0371 30.977 21.0936L34.4114 21.9763C33.7916 24.4292 32.6704 26.6431 31.0477 28.618C29.425 30.5929 27.4584 32.1375 25.1479 33.2516Z" fill="#005AE1"/>
<path d="M106.105 9.84481C106.639 9.84481 107.098 10.0375 107.484 10.4228C107.869 10.8081 108.061 11.2675 108.061 11.8011C108.061 12.3642 107.869 12.8385 107.484 13.2238C107.098 13.6091 106.639 13.8018 106.105 13.8018C105.542 13.8018 105.068 13.6091 104.683 13.2238C104.298 12.8385 104.105 12.3642 104.105 11.8011C104.105 11.2675 104.298 10.8081 104.683 10.4228C105.068 10.0375 105.542 9.84481 106.105 9.84481Z" fill="#CF0101"/>
<path d="M126.44 9.84481C126.974 9.84481 127.433 10.0375 127.818 10.4228C128.204 10.8081 128.396 11.2675 128.396 11.8011C128.396 12.3642 128.204 12.8385 127.818 13.2238C127.433 13.6091 126.974 13.8018 126.44 13.8018C125.877 13.8018 125.403 13.6091 125.018 13.2238C124.632 12.8385 124.44 12.3642 124.44 11.8011C124.44 11.2675 124.632 10.8081 125.018 10.4228C125.403 10.0375 125.877 9.84481 126.44 9.84481Z" fill="#CF0101"/>
<path d="M46.7324 36.1793C44.7921 36.1793 43.07 35.7548 41.5662 34.9059C40.0624 34.057 38.8739 32.8928 38.0007 31.4132C37.1275 29.9094 36.691 28.2116 36.691 26.3197C36.691 24.4036 37.1275 22.7058 38.0007 21.2262C38.8739 19.7467 40.0624 18.5946 41.5662 17.7699C43.07 16.921 44.7921 16.4966 46.7324 16.4966C48.6486 16.4966 50.3585 16.921 51.8623 17.7699C53.3904 18.5946 54.5789 19.7467 55.4278 21.2262C56.3009 22.6815 56.7375 24.3794 56.7375 26.3197C56.7375 28.2359 56.3009 29.9337 55.4278 31.4132C54.5789 32.8928 53.3904 34.057 51.8623 34.9059C50.3585 35.7548 48.6486 36.1793 46.7324 36.1793ZM46.7324 33.1232C47.9694 33.1232 49.073 32.8443 50.0432 32.2864C51.0377 31.7286 51.8138 30.9403 52.3717 29.9216C52.9295 28.8786 53.2085 27.678 53.2085 26.3197C53.2085 24.9372 52.9295 23.7487 52.3717 22.7543C51.8138 21.7356 51.0377 20.9473 50.0432 20.3895C49.073 19.8316 47.9694 19.5527 46.7324 19.5527C45.4954 19.5527 44.3918 19.8316 43.4217 20.3895C42.4515 20.9473 41.6753 21.7356 41.0932 22.7543C40.5111 23.7487 40.22 24.9372 40.22 26.3197C40.22 27.678 40.5111 28.8786 41.0932 29.9216C41.6753 30.9403 42.4515 31.7286 43.4217 32.2864C44.3918 32.8443 45.4954 33.1232 46.7324 33.1232Z" fill="#005AE1"/>
<path d="M71.864 16.4966C73.4405 16.4966 74.8231 16.7997 76.0115 17.4061C77.2243 18.0125 78.1702 18.9342 78.8493 20.1712C79.5285 21.4082 79.868 22.9726 79.868 24.8645V35.961H76.3754V25.2647C76.3754 23.397 75.9145 21.9903 74.9928 21.0443C74.0954 20.0984 72.822 19.6254 71.1727 19.6254C69.9357 19.6254 68.8564 19.868 67.9347 20.3531C67.013 20.8382 66.2975 21.5537 65.7882 22.4996C65.3031 23.4456 65.0605 24.6219 65.0605 26.0287V35.961H61.5678V16.6785H64.915V21.8811L64.3692 20.4986C64.9999 19.2374 65.9701 18.255 67.2798 17.5516C68.5896 16.8483 70.1176 16.4966 71.864 16.4966Z" fill="#005AE1"/>
<path d="M91.8619 36.1793C90.2611 36.1793 88.7331 35.961 87.2778 35.5244C85.8467 35.0878 84.7189 34.5542 83.8942 33.9236L85.3495 31.1586C86.1742 31.7164 87.1929 32.1894 88.4056 32.5775C89.6184 32.9655 90.8553 33.1596 92.1166 33.1596C93.7417 33.1596 94.9059 32.9292 95.6093 32.4683C96.3369 32.0075 96.7008 31.3647 96.7008 30.5401C96.7008 29.9337 96.4825 29.4607 96.0459 29.1212C95.6093 28.7816 95.0272 28.5269 94.2995 28.3571C93.5961 28.1874 92.8079 28.0418 91.9347 27.9206C91.0615 27.775 90.1883 27.6052 89.3152 27.4112C88.442 27.1929 87.6416 26.9019 86.914 26.538C86.1863 26.15 85.6042 25.6285 85.1676 24.9736C84.731 24.2945 84.5127 23.397 84.5127 22.2813C84.5127 21.1171 84.8402 20.0984 85.495 19.2252C86.1499 18.3521 87.0716 17.685 88.2601 17.2242C89.4728 16.7391 90.9039 16.4966 92.5532 16.4966C93.8144 16.4966 95.0878 16.6542 96.3733 16.9695C97.6831 17.2606 98.7503 17.685 99.5749 18.2429L98.0833 21.0079C97.2101 20.4258 96.3005 20.0256 95.3546 19.8073C94.4087 19.589 93.4627 19.4799 92.5168 19.4799C90.9888 19.4799 89.8488 19.7346 89.0969 20.2439C88.345 20.729 87.969 21.3596 87.969 22.1358C87.969 22.7907 88.1873 23.3 88.6239 23.6638C89.0848 24.0034 89.6669 24.2702 90.3703 24.4643C91.0979 24.6583 91.8983 24.8281 92.7715 24.9736C93.6447 25.0949 94.5178 25.2647 95.391 25.483C96.2642 25.677 97.0524 25.9559 97.7558 26.3197C98.4835 26.6836 99.0656 27.1929 99.5022 27.8478C99.963 28.5027 100.193 29.3758 100.193 30.4673C100.193 31.6315 99.8539 32.6381 99.1747 33.487C98.4956 34.3359 97.5375 35.0029 96.3005 35.488C95.0636 35.9489 93.584 36.1793 91.8619 36.1793Z" fill="#005AE1"/>
<path d="M104.558 35.961V16.6785H108.051V35.961H104.558Z" fill="#005AE1"/>
<path d="M114.72 35.961V8.96546H118.213V35.961H114.72Z" fill="#005AE1"/>
<path d="M124.881 35.961V16.6785H128.374V35.961H124.881Z" fill="#005AE1"/>
<path d="M143.156 36.1793C141.507 36.1793 140.051 35.8761 138.79 35.2697C137.553 34.6634 136.583 33.7417 135.879 32.5047C135.2 31.2435 134.861 29.6669 134.861 27.775V16.6785H138.353V27.3748C138.353 29.2667 138.802 30.6856 139.7 31.6315C140.621 32.5775 141.907 33.0504 143.556 33.0504C144.769 33.0504 145.824 32.8079 146.721 32.3228C147.619 31.8134 148.31 31.0858 148.795 30.1399C149.28 29.1697 149.523 28.0054 149.523 26.6472V16.6785H153.015V35.961H149.705V30.7584L150.25 32.1409C149.62 33.4264 148.674 34.4208 147.413 35.1242C146.151 35.8276 144.732 36.1793 143.156 36.1793Z" fill="#005AE1"/>
<path d="M183.786 16.4966C185.338 16.4966 186.709 16.7997 187.897 17.4061C189.086 18.0125 190.007 18.9342 190.662 20.1712C191.341 21.4082 191.681 22.9726 191.681 24.8645V35.961H188.188V25.2647C188.188 23.397 187.752 21.9903 186.878 21.0443C186.005 20.0984 184.78 19.6254 183.204 19.6254C182.04 19.6254 181.021 19.868 180.148 20.3531C179.275 20.8382 178.595 21.5537 178.11 22.4996C177.65 23.4456 177.419 24.6219 177.419 26.0287V35.961H173.926V25.2647C173.926 23.397 173.49 21.9903 172.617 21.0443C171.768 20.0984 170.543 19.6254 168.942 19.6254C167.802 19.6254 166.796 19.868 165.922 20.3531C165.049 20.8382 164.37 21.5537 163.885 22.4996C163.4 23.4456 163.157 24.6219 163.157 26.0287V35.961H159.665V16.6785H163.012V21.8084L162.466 20.4986C163.072 19.2374 164.006 18.255 165.267 17.5516C166.529 16.8483 167.996 16.4966 169.67 16.4966C171.513 16.4966 173.102 16.9574 174.436 17.8791C175.77 18.7765 176.643 20.1469 177.055 21.9903L175.636 21.4082C176.218 19.9286 177.237 18.7401 178.692 17.8427C180.148 16.9453 181.846 16.4966 183.786 16.4966Z" fill="#005AE1"/>
</svg>
